PathFileType	4	(X/Y/Z)	C:\Users\86182\Documents\cortex\Trimmed_M4_L2.trc
DataRate	CameraRate	NumFrames	NumMarkers	Units	OrigDataRate	OrigDataStartFrame	OrigNumFrames
100.00	100.00	      112	2	mm	100.00	735	      1101
Frame#	Time	gripper			box			
		X1	Y1	Z1	X2	Y2	Z2	

735	7.340	276.24652	151.26270	292.55212	276.75613	149.43526	156.50862	
736	7.350	276.24664	151.26273	292.55222	276.75345	149.43672	156.50912	
737	7.360	276.24670	151.26276	292.55228	276.75168	149.43813	156.50929	
738	7.370	276.24670	151.26276	292.55225	276.75116	149.43939	156.50919	
739	7.380	276.24658	151.26271	292.55219	276.75214	149.44008	156.50864	
740	7.390	276.24637	151.26263	292.55200	276.75479	149.43967	156.50746	
741	7.400	276.24603	151.26253	292.55173	276.75909	149.43781	156.50562	
742	7.410	276.24561	151.26239	292.55139	276.76492	149.43448	156.50333	
743	7.420	276.24518	151.26224	292.55099	276.77161	149.43013	156.50101	
744	7.430	276.24478	151.26212	292.55072	276.77780	149.42552	156.49910	
745	7.440	276.24466	151.26207	292.55060	276.78198	149.42152	156.49799	
746	7.450	276.24481	151.26213	292.55072	276.78314	149.41875	156.49791	
747	7.460	276.24521	151.26225	292.55103	276.78128	149.41727	156.49867	
748	7.470	276.24567	151.26241	292.55139	276.77740	149.41670	156.49976	
749	7.480	276.24606	151.26254	292.55176	276.77295	149.41647	156.50055	
750	7.490	276.24637	151.26265	292.55200	276.76923	149.41623	156.50084	
751	7.500	276.24655	151.26271	292.55215	276.76697	149.41591	156.50081	
752	7.510	276.24661	151.26273	292.55219	276.76645	149.41557	156.50073	
753	7.520	276.24652	151.26270	292.55212	276.76782	149.41505	156.50056	
754	7.530	276.24631	151.26262	292.55194	276.77115	149.41402	156.50018	
755	7.540	276.24603	151.26253	292.55170	276.77594	149.41237	156.49957	
756	7.550	276.24570	151.26242	292.55142	276.78128	149.41048	156.49887	
757	7.560	276.24542	151.26233	292.55121	276.78586	149.40906	156.49821	
758	7.570	276.24530	151.26228	292.55109	276.78876	149.40862	156.49765	
759	7.580	276.24539	151.26231	292.55118	276.78979	149.40915	156.49713	
760	7.590	276.24564	151.26241	292.55139	276.78925	149.41046	156.49670	
761	7.600	276.24591	151.26250	292.55161	276.78757	149.41237	156.49644	
762	7.610	276.24612	151.26256	292.55179	276.78506	149.41479	156.49643	
763	7.620	276.24625	151.26260	292.55188	276.78204	149.41759	156.49663	
764	7.630	276.24622	151.26260	292.55188	276.77927	149.42023	156.49699	
765	7.640	276.24609	151.26256	292.55179	276.77789	149.42183	156.49727	
766	7.650	276.24594	151.26250	292.55164	276.77869	149.42165	156.49715	
767	7.660	276.24576	151.26245	292.55148	276.78165	149.41949	156.49646	
768	7.670	276.24570	151.26242	292.55142	276.78589	149.41588	156.49530	
769	7.680	276.24579	151.26245	292.55151	276.79019	149.41161	156.49414	
770	7.690	276.24594	151.26251	292.55164	276.79318	149.40753	156.49345	
771	7.700	276.24609	151.26256	292.55176	276.79401	149.40442	156.49368	
772	7.710	276.24615	151.26257	292.55182	276.79233	149.40291	156.49498	
773	7.720	276.24606	151.26254	292.55173	276.78864	149.40337	156.49704	
774	7.730	276.24579	151.26245	292.55151	276.78372	149.40567	156.49945	
775	7.740	276.24533	151.26230	292.55115	276.77829	149.40926	156.50198	
776	7.750	276.24484	151.26213	292.55072	276.77307	149.41312	156.50436	
777	7.760	276.24438	151.26199	292.55035	276.76874	149.41621	156.50620	
778	7.770	276.24420	151.26192	292.55020	276.76569	149.41792	156.50714	
779	7.780	276.24432	151.26196	292.55032	276.76389	149.41832	156.50723	
780	7.790	276.24469	151.26208	292.55060	276.76291	149.41812	156.50665	
781	7.800	276.24506	151.26221	292.55090	276.76233	149.41820	156.50568	
782	7.810	276.24527	151.26228	292.55109	276.76218	149.41884	156.50446	
783	7.820	276.24524	151.26227	292.55109	276.76276	149.41968	156.50307	
784	7.830	276.24503	151.26219	292.55087	276.76410	149.42030	156.50171	
785	7.840	276.24466	151.26207	292.55057	276.76611	149.42036	156.50063	
786	7.850	276.24432	151.26196	292.55029	276.76874	149.41942	156.49968	
787	7.860	276.24420	151.26193	292.55020	276.77197	149.41728	156.49863	
788	7.870	276.24432	151.26198	292.55032	276.77521	149.41438	156.49750	
789	7.880	276.24466	151.26208	292.55060	276.77777	149.41144	156.49658	
790	7.890	276.24512	151.26222	292.55096	276.77957	149.40884	156.49600	
791	7.900	276.24554	151.26237	292.55133	276.78137	149.40645	156.49557	
792	7.910	276.24594	151.26251	292.55164	276.78369	149.40408	156.49506	
793	7.920	276.24625	151.26260	292.55188	276.78641	149.40201	156.49438	
794	7.930	276.24646	151.26266	292.55206	276.78876	149.40074	156.49382	
795	7.940	276.24652	151.26270	292.55209	276.78973	149.40080	156.49361	
796	7.950	276.24649	151.26270	292.55209	276.78897	149.40248	156.49384	
797	7.960	276.24643	151.26266	292.55203	276.78680	149.40575	156.49445	
798	7.970	276.24634	151.26263	292.55194	276.78375	149.41037	156.49544	
799	7.980	276.24628	151.26262	292.55191	276.78003	149.41589	156.49692	
800	7.990	276.24628	151.26262	292.55194	276.77591	149.42160	156.49890	
801	8.000	276.24631	151.26263	292.55194	276.77185	149.42656	156.50122	
802	8.010	276.24631	151.26263	292.55194	276.76849	149.43001	156.50348	
803	8.020	276.24625	151.26260	292.55188	276.76627	149.43166	156.50537	
804	8.030	276.24603	151.26254	292.55173	276.76523	149.43164	156.50677	
805	8.040	276.24573	151.26244	292.55145	276.76501	149.43044	156.50778	
806	8.050	276.24536	151.26231	292.55115	276.76498	149.42844	156.50842	
807	8.060	276.24496	151.26218	292.55084	276.76492	149.42606	156.50859	
808	8.070	276.24463	151.26205	292.55054	276.76471	149.42378	156.50813	
809	8.080	276.24426	151.26195	292.55026	276.76443	149.42209	156.50705	
810	8.090	276.24393	151.26183	292.54999	276.76413	149.42099	156.50545	
811	8.100	276.24353	151.26170	292.54965	276.76385	149.42026	156.50360	
812	8.110	276.24319	151.26160	292.54938	276.76382	149.41969	156.50171	
813	8.120	276.24298	151.26152	292.54919	276.76450	149.41910	156.49979	
814	8.130	276.24286	151.26147	292.54910	276.76602	149.41830	156.49792	
815	8.140	276.24261	151.26140	292.54889	276.76813	149.41722	156.49620	
816	8.150	276.24219	151.26125	292.54852	276.77048	149.41586	156.49460	
817	8.160	276.24155	151.26105	292.54800	276.77286	149.41418	156.49313	
818	8.170	276.24097	151.26085	292.54755	276.77524	149.41217	156.49207	
819	8.180	276.24066	151.26074	292.54730	276.77731	149.40987	156.49173	
820	8.190	276.24057	151.26073	292.54721	276.77875	149.40753	156.49225	
821	8.200	276.24054	151.26070	292.54718	276.77942	149.40550	156.49339	
822	8.210	276.24033	151.26064	292.54700	276.77948	149.40414	156.49472	
823	8.220	276.23993	151.26051	292.54669	276.77939	149.40367	156.49571	
824	8.230	276.23953	151.26038	292.54636	276.77951	149.40401	156.49614	
825	8.240	276.23938	151.26031	292.54623	276.77969	149.40511	156.49623	
826	8.250	276.23962	151.26041	292.54645	276.77899	149.40720	156.49652	
827	8.260	276.24042	151.26067	292.54706	276.77634	149.41048	156.49745	
828	8.270	276.24152	151.26103	292.54797	276.77158	149.41478	156.49907	
829	8.280	276.24265	151.26141	292.54892	276.76526	149.41954	156.50104	
830	8.290	276.24353	151.26170	292.54962	276.75833	149.42406	156.50299	
831	8.300	276.24399	151.26186	292.55005	276.75189	149.42744	156.50481	
832	8.310	276.24417	151.26192	292.55017	276.74719	149.42894	156.50635	
833	8.320	276.24420	151.26193	292.55020	276.74542	149.42828	156.50740	
834	8.330	276.24423	151.26195	292.55023	276.74722	149.42564	156.50764	
835	8.340	276.24429	151.26196	292.55029	276.75244	149.42122	156.50682	
836	8.350	276.24435	151.26198	292.55032	276.76035	149.41531	156.50490	
837	8.360	276.24432	151.26196	292.55029	276.76941	149.40877	156.50232	
838	8.370	276.24414	151.26190	292.55014	276.77765	149.40289	156.49992	
839	8.380	276.24371	151.26176	292.54980	276.78357	149.39871	156.49843	
840	8.390	276.24310	151.26155	292.54929	276.78653	149.39658	156.49811	
841	8.400	276.24228	151.26128	292.54861	276.78662	149.39644	156.49875	
842	8.410	276.24136	151.26099	292.54788	276.78421	149.39839	156.50002	
843	8.420	276.24054	151.26071	292.54718	276.77951	149.40234	156.50151	
844	8.430	276.23990	151.26050	292.54669	276.77286	149.40762	156.50299	
845	8.440	276.23953	151.26038	292.54639	276.76495	149.41304	156.50423	
846	8.450	276.23953	151.26038	292.54636	276.75687	149.41751	156.50494	
